<?xml version="1.0" encoding="UTF-8" standalone="no"?>
<svg xmlns="http://www.w3.org/2000/svg" width="24" height="24" viewBox="0 0 24 24">
  <path d="M2,12 C5,6 9,4 12,4 C15,4 19,6 22,12 C19,18 15,20 12,20 C9,20 5,18 2,12 Z"
        fill="none" stroke="#2e3436" stroke-width="2.2" stroke-linecap="round" stroke-linejoin="round"/>
  <path fill-rule="evenodd" fill="#2e3436"
        d="M16.3,12 A4.3,4.3 0 1 0 7.7,12 A4.3,4.3 0 1 0 16.3,12 Z
           M11.4,9.7 A1.3,1.3 0 1 0 8.8,9.7 A1.3,1.3 0 1 0 11.4,9.7 Z"/>
</svg>
